<?xml version="1.0" encoding="UTF-8"?>
<!DOCTYPE svg PUBLIC "-//W3C//DTD SVG 1.1//EN" "http://www.w3.org/Graphics/SVG/1.1/DTD/svg11.dtd">
<svg xmlns="http://www.w3.org/2000/svg" version="1.1" width="280px" height="328px" style="shape-rendering:geometricPrecision; text-rendering:geometricPrecision; image-rendering:optimizeQuality; fill-rule:evenodd; clip-rule:evenodd" xmlns:xlink="http://www.w3.org/1999/xlink">
<g><path style="opacity:0.905" fill="#fefffe" d="M 154.5,-0.5 C 156.833,-0.5 159.167,-0.5 161.5,-0.5C 183.317,3.82579 202.15,13.8258 218,29.5C 226.097,39.7079 230.264,51.3746 230.5,64.5C 229.998,65.521 229.332,65.6877 228.5,65C 211.039,47.2679 190.039,37.1013 165.5,34.5C 168.471,39.3035 171.638,43.9702 175,48.5C 175.688,49.3317 175.521,49.9984 174.5,50.5C 157.733,44.2468 140.4,41.4135 122.5,42C 140.631,48.1507 158.131,55.6507 175,64.5C 178.134,61.6944 180.967,58.5277 183.5,55C 205.215,56.1134 224.049,63.9468 240,78.5C 242.213,81.0946 244.047,83.9279 245.5,87C 245.167,87.5 244.833,88 244.5,88.5C 240.417,86.1084 236.083,84.9418 231.5,85C 232.956,87.2658 233.79,89.7658 234,92.5C 240.125,96.9562 245.958,101.789 251.5,107C 257.67,110.919 264.003,114.586 270.5,118C 273.04,120.205 275.207,122.705 277,125.5C 277.667,127.833 277.667,130.167 277,132.5C 274.732,130.812 272.565,128.979 270.5,127C 267.167,126.333 263.833,126.333 260.5,127C 253.042,131.462 245.042,134.462 236.5,136C 245.651,139.113 254.985,141.447 264.5,143C 271.55,155.416 269.216,165.749 257.5,174C 250.34,174.01 243.34,175.01 236.5,177C 228.523,180.322 220.857,184.155 213.5,188.5C 211.259,187.968 209.759,186.635 209,184.5C 208.086,178.719 208.919,173.219 211.5,168C 203.332,170.756 195.499,174.589 188,179.5C 187.833,179.167 187.667,178.833 187.5,178.5C 195.119,171.726 203.452,165.893 212.5,161C 213.743,159.846 214.743,158.512 215.5,157C 213.155,156.83 210.821,157.163 208.5,158C 197.857,162.423 187.69,167.59 178,173.5C 177.833,173 177.667,172.5 177.5,172C 188.998,163.08 201.331,155.413 214.5,149C 197.525,151.82 181.858,157.987 167.5,167.5C 166.289,166.726 166.289,165.893 167.5,165C 173.337,161.582 179.004,157.916 184.5,154C 181.691,153.866 178.857,154.032 176,154.5C 173.409,154.435 170.909,153.935 168.5,153C 161.572,148.413 154.905,143.413 148.5,138C 138.552,137.444 133.552,142.277 133.5,152.5C 134.378,159.094 137.045,164.927 141.5,170C 151.538,176.365 160.705,183.865 169,192.5C 170.333,195.167 171.667,197.833 173,200.5C 173.814,202.902 173.647,205.235 172.5,207.5C 168.981,204.146 165.314,200.98 161.5,198C 150.572,192.065 139.906,185.732 129.5,179C 112.227,164.767 108.727,147.6 119,127.5C 127.167,112.667 138.667,101.167 153.5,93C 146.489,93.442 139.656,94.942 133,97.5C 130.216,95.7201 127.716,93.5535 125.5,91C 122.236,89.9712 119.236,88.4712 116.5,86.5C 135.003,75.9071 154.336,74.0738 174.5,81C 183.083,86.0888 189.417,93.2555 193.5,102.5C 201.463,100.502 209.463,100.002 217.5,101C 213.515,97.5304 210.182,93.697 207.5,89.5C 208.873,89.6567 210.207,89.49 211.5,89C 197.956,76.2652 182.123,72.0985 164,76.5C 143.293,71.8348 122.793,72.6681 102.5,79C 100.445,79.6872 98.7786,80.8539 97.5,82.5C 98.9968,92.3187 101.997,101.652 106.5,110.5C 99.2345,117.264 92.0678,124.264 85,131.5C 79.275,139.289 74.9416,147.622 72,156.5C 79.1663,148.829 87.333,142.495 96.5,137.5C 96.8333,138 97.1667,138.5 97.5,139C 91.2725,155.993 94.2725,170.993 106.5,184C 117.167,191.667 127.833,199.333 138.5,207C 148.963,216.281 156.963,227.281 162.5,240C 162.15,241.257 161.483,241.591 160.5,241C 151.596,228.053 139.596,220.053 124.5,217C 129.394,220.935 133.228,225.769 136,231.5C 146.578,255.889 149.578,281.222 145,307.5C 144.131,310.33 142.964,312.997 141.5,315.5C 143.332,286.526 134.832,260.86 116,238.5C 105.627,228.063 95.9603,217.063 87,205.5C 88.3745,211.646 90.3745,217.646 93,223.5C 99.8578,235.215 106.191,247.215 112,259.5C 117.846,272.214 120.513,285.547 120,299.5C 118.383,309.166 115.883,318.5 112.5,327.5C 111.5,327.5 110.5,327.5 109.5,327.5C 110.626,320.914 110.792,314.247 110,307.5C 107.901,298.641 105.234,289.975 102,281.5C 89.5584,257.611 76.8917,233.945 64,210.5C 60.3781,200.925 57.0448,191.258 54,181.5C 52.7023,194.038 53.7023,206.371 57,218.5C 64.5138,237.711 73.1804,256.378 83,274.5C 87.8776,284.675 91.211,295.342 93,306.5C 93.8303,312.528 93.6636,318.528 92.5,324.5C 89.4446,313.06 85.2779,302.06 80,291.5C 70,275.5 60,259.5 50,243.5C 46.1835,234.717 43.1835,225.717 41,216.5C 38.299,230.449 37.9657,244.449 40,258.5C 42.3082,266.758 44.9749,274.758 48,282.5C 22.7984,260.252 12.1317,232.252 16,198.5C 21.8396,166.319 36.0062,138.486 58.5,115C 57.8333,114.333 57.1667,114.333 56.5,115C 25.6582,135.844 7.32492,164.677 1.5,201.5C 0.832359,198.694 0.165692,196.028 -0.5,193.5C -0.5,180.167 -0.5,166.833 -0.5,153.5C 5.24062,120.878 21.5739,94.7112 48.5,75C 38.3759,77.5599 29.0426,82.0599 20.5,88.5C 20.1667,88 19.8333,87.5 19.5,87C 35.089,58.7533 58.4224,40.0867 89.5,31C 73.5817,29.9805 58.2484,32.4805 43.5,38.5C 42.4063,37.132 42.7397,35.9653 44.5,35C 79.6565,11.8594 117.99,4.52608 159.5,13C 165.338,14.5373 171.004,16.204 176.5,18C 169.562,11.2168 162.228,5.05011 154.5,-0.5 Z"/></g>
<g><path style="opacity:0.714" fill="#fefffe" d="M 279.5,158.5 C 279.5,162.5 279.5,166.5 279.5,170.5C 277.621,174.009 274.621,175.342 270.5,174.5C 270.46,171.575 271.293,168.909 273,166.5C 273.56,161.09 273.56,155.756 273,150.5C 275.996,152.59 278.163,155.257 279.5,158.5 Z"/></g>
<g><path style="opacity:0.921" fill="#fefffe" d="M 237.5,186.5 C 263.315,183.819 271.481,194.486 262,218.5C 258.592,223.742 254.092,227.742 248.5,230.5C 247.904,229.284 247.737,227.951 248,226.5C 241.126,233.193 232.959,237.527 223.5,239.5C 222.494,239.062 222.494,238.396 223.5,237.5C 233.525,231.277 237.691,222.277 236,210.5C 226.455,212.389 219.788,208.723 216,199.5C 215.333,197.5 215.333,195.5 216,193.5C 223.154,190.846 230.32,188.513 237.5,186.5 Z"/></g>
</svg>
